<?xml version="1.0" standalone="no"?>
<!DOCTYPE svg PUBLIC "-//W3C//DTD SVG 1.1//EN" "http://www.w3.org/Graphics/SVG/1.1/DTD/svg11.dtd" >
<svg xmlns="http://www.w3.org/2000/svg">
<metadata>
Created by FontForge 20120731 at Sun Jul 10 23:58:29 2016
 By admin
</metadata>
<defs>
<font id="iconfont" horiz-adv-x="1024" >
  <font-face 
    font-family="iconfont"
    font-weight="500"
    font-stretch="normal"
    units-per-em="1024"
    panose-1="2 0 6 3 0 0 0 0 0 0"
    ascent="896"
    descent="-128"
    x-height="792"
    bbox="0 -146 1182 896"
    underline-thickness="50"
    underline-position="-100"
    unicode-range="U+0078-E61B"
  />
<missing-glyph horiz-adv-x="374" 
d="M34 0v682h272v-682h-272zM68 34h204v614h-204v-614z" />
    <glyph glyph-name=".notdef" horiz-adv-x="374" 
d="M34 0v682h272v-682h-272zM68 34h204v614h-204v-614z" />
    <glyph glyph-name=".null" horiz-adv-x="0" 
 />
    <glyph glyph-name="nonmarkingreturn" horiz-adv-x="341" 
 />
    <glyph glyph-name="x" unicode="x" horiz-adv-x="1001" 
d="M281 543q-27 -1 -53 -1h-83q-18 0 -36.5 -6t-32.5 -18.5t-23 -32t-9 -45.5v-76h912v41q0 16 -0.5 30t-0.5 18q0 13 -5 29t-17 29.5t-31.5 22.5t-49.5 9h-133v-97h-438v97zM955 310v-52q0 -23 0.5 -52t0.5 -58t-10.5 -47.5t-26 -30t-33 -16t-31.5 -4.5q-14 -1 -29.5 -0.5
t-29.5 0.5h-32l-45 128h-439l-44 -128h-29h-34q-20 0 -45 1q-25 0 -41 9.5t-25.5 23t-13.5 29.5t-4 30v167h911zM163 247q-12 0 -21 -8.5t-9 -21.5t9 -21.5t21 -8.5q13 0 22 8.5t9 21.5t-9 21.5t-22 8.5zM316 123q-8 -26 -14 -48q-5 -19 -10.5 -37t-7.5 -25t-3 -15t1 -14.5
t9.5 -10.5t21.5 -4h37h67h81h80h64h36q23 0 34 12t2 38q-5 13 -9.5 30.5t-9.5 34.5q-5 19 -11 39h-368zM336 498v228q0 11 2.5 23t10 21.5t20.5 15.5t34 6h188q31 0 51.5 -14.5t20.5 -52.5v-227h-327z" />
    <glyph glyph-name="uniE600" unicode="&#xe600;" 
d="M616 225q-3 1 -6 2.5t-7 7t-6.5 12.5t-2 20t5.5 28q37 38 60.5 94t23.5 112q0 87 -49.5 135t-122.5 48t-122.5 -48t-49.5 -135q0 -57 23.5 -112.5t60.5 -93.5q6 -19 6 -31.5t-7 -21.5t-11.5 -12.5t-8.5 -4.5q-85 -31 -148 -75t-63 -87v-24q0 -105 321 -105q319 0 319 105
v24q0 45 -65 89t-151 73z" />
    <glyph glyph-name="uniE601" unicode="&#xe601;" 
d="M750 574l36 -42q17 -32 3 -65q-9 -22 -31 -40q-33 -27 -85 -27q-53 0 -86 28q-24 31 -24 66q0 45 38 82l67 44l-156 128l-156 -128l67 -44q39 -37 39 -82q0 -34 -24 -65q-32 -29 -87 -29q-52 0 -85 27q-22 18 -31 40q-14 33 3 65l36 42l-185 55l87 -341h672l87 341z
M178 265h668v-49h-668v49zM473 150l-112 -296h-75l-113 296h73l70 -208q4 -14 9 -29q0 1 3 7q2 6 6 22l66 208h73zM562 -146h-69v296h69v-296zM722 -43h-50v-103h-67v296h124q107 -3 111 -93q1 -101 -118 -100zM716 98h-44v-90h44q53 2 54 46q-1 43 -54 44z" />
    <glyph glyph-name="uniE602" unicode="&#xe602;" 
d="M789 504v166q0 51 -51.5 88.5t-127 55.5t-160.5 18t-161 -18t-127 -55.5t-51 -88.5v-477q0 -50 51 -87.5t127 -55.5t161 -18v1q16 -41 76 -68.5t153 -27.5q108 0 170.5 36.5t63.5 86.5v333q0 35 -32.5 65.5t-91.5 45.5zM171 193v144q47 -32 120.5 -49t152.5 -18v-178
q-118 1 -195.5 33.5t-77.5 67.5zM444 393v-62q-118 0 -195.5 33t-77.5 68v143q48 -32 123 -49t155.5 -17t155.5 17t123 49v-60q-24 2 -49 2q-110 0 -172.5 -37t-62.5 -87zM851 59q0 -5 -6.5 -12.5t-21 -15.5t-34.5 -15t-49 -11t-61.5 -4t-61.5 4t-48.5 11t-34 15t-21.5 15.5
t-7 12.5v80q66 -38 173 -38t172 38v-80zM851 225q0 -5 -6.5 -12.5t-21 -15.5t-34.5 -15t-49 -11t-61.5 -4t-61.5 4t-48.5 11t-34 15t-21.5 15.5t-7 12.5v80q66 -38 173 -38t172 38v-80z" />
    <glyph glyph-name="uniE603" unicode="&#xe603;" 
d="M298 459h427q-11 -27 -53.5 -133.5t-65.5 -164.5h2q14 28 15 30.5t3.5 7t3.5 6.5q6 12 23.5 48.5t27.5 56.5q18 37 41 84q2 4 11.5 25t15.5 32q2 3 6 5q48 26 86 46l39 20l35 17l58 30l4 2q1 0 1 -1q-125 -165 -460 -610q-255 311 -498 610l1 1q23 -10 24 -10
q78 -34 97 -43q14 -6 41 -18t41 -18q5 -2 17.5 -7.5t18.5 -8.5q3 -1 5 -5q8 -16 24 -47.5t18 -34.5q28 -54 51 -99q2 -5 45 -88q31 -60 48 -90q-13 31 -153 357zM834 703q-12 -5 -13 -5q-11 -6 -33 -16.5t-33 -16.5q-31 -15 -36 -17q-6 -2 -35 -9q-6 -1 -12 -1h-315
q-7 0 -24 4q-21 5 -30 8q-12 4 -30 14q-7 4 -15 8.5t-17 9.5t-15 8q-2 1 -36 21q49 18 52 19q38 14 69 25h5h393q3 0 17 -5q26 -11 63 -27q3 -1 44 -18q0 -1 1 -2zM737 485h-421l5 18q27 89 32 106q2 5 7 5q41 -1 176 -1q110 0 137 1q6 0 9 -6q23 -52 39 -89q1 -2 16 -34z
M334 610q-7 -19 -22.5 -61t-23.5 -64q-49 20 -134 56.5t-124 51.5q21 16 24 17q11 8 34.5 26t35.5 27q36 27 42 30q3 3 8 1q9 -5 27 -14.5t25 -13.5q13 -7 36.5 -18.5t29.5 -14.5q13 -7 39 -20zM976 593l-1 -1l-1 -1h-1l-1 -1h-1l-1 -1h-1l-1 -1h-1l-1 -1h-1l-1 -1h-1l-1 -1
h-1l-1 -1h-1l-1 -1h-1l-1 -1h-1l-1 -1h-1l-1 -1h-1l-1 -1h-1l-1 -1h-1l-1 -1h-1l-1 -1h-1l-1 -1l-1 -1h-1l-1 -1h-1l-1 -1h-1l-1 -1h-1l-1 -1h-1l-1 -1h-1l-1 -1h-1l-1 -1h-1l-1 -1h-1l-1 -1h-1l-1 -1h-1l-1 -1h-1l-1 -1h-1l-1 -1l-1 -1h-1l-1 -1h-1l-1 -1h-1l-1 -1h-1
l-1 -1h-1l-1 -1h-1l-1 -1h-1l-1 -1h-1l-1 -1h-1l-1 -1h-1l-1 -1h-1l-1 -1h-1l-1 -1h-1l-1 -1h-1l-1 -1h-1l-1 -1h-1l-1 -1h-1l-1 -1h-1l-1 -1h-1l-1 -1l-1 -1h-1l-1 -1h-1l-1 -1h-1l-1 -1h-1l-1 -1h-1l-1 -1h-1l-1 -1h-1l-1 -1h-1l-1 -1h-1l-1 -1h-1l-1 -1h-1l-1 -1h-1
l-1 -1h-1l-1 -1h-1l-1 -1h-1l-1 -1h-1l-1 -1h-1l-1 -1h-1l-1 -1h-1l-1 -1h-1l-1 -1h-1l-1 -1l-1 -1h-1l-1 -1h-1l-1 -1h-1l-1 -1h-1l-1 -1h-1l-1 -1h-1l-1 -1h-1l-1 -1h-1l-1 -1h-1l-1 -1h-1l-1 -1h-1l-1 -1h-1l-1 -1h-1l-1 -1h-1l-1 -1h-1l-1 -1h-1l-1 -1h-1l-1 -1h-1
l-1 -1h-1l-1 -1h-1l-1 -1l-1 -1h-1l-1 -1h-1l-1 -1h-1l-1 -1h-1l-1 -1h-1l-1 -1h-1l-1 -1h-1l-1 -1h-1l-1 -1h-1l-1 -1h-1l-1 -1h-1l-1 -1h-1l-2 -1q-9 21 -10 22q-5 11 -16 33t-16 33q-3 6 -9.5 19.5t-10.5 20.5q-2 5 2 7q34 19 87 48q36 20 51 29q5 3 10 -1q3 -3 19 -17
t25 -21q8 -6 22.5 -18t21.5 -18q2 -2 34 -29z" />
    <glyph glyph-name="uniE604" unicode="&#xe604;" horiz-adv-x="1039" 
d="M1 576q0 1 1 4t2 5q6 19 21.5 30.5t35.5 13.5q19 1 35.5 -8.5t25.5 -26.5q19 -38 -9 -70q-4 -5 -6 -7q22 -14 69 -43t72 -44l54 -33q15 -9 24 6q66 121 162 296q-38 20 -40 58q-1 28 19 48t48.5 18.5t45.5 -23.5q20 -25 13.5 -52t-38.5 -49q14 -26 42 -77
q19 -35 58 -106.5t59 -107.5q7 -12 13 -13.5t18 5.5q30 18 90.5 55.5t91.5 55.5q1 1 4 3t5 3q-20 20 -22 44q-1 24 14 43.5t39 22.5q24 5 44.5 -7.5t28.5 -36.5q0 -1 2 -8v-22q-16 -52 -68 -52l-3 -12q-18 -61 -53.5 -182.5t-53.5 -182.5q-3 -12 -8.5 -16t-17.5 -4h-613
q-13 0 -18.5 4t-8.5 16q-15 49 -43.5 148t-43.5 149q-4 15 -23 80q-42 0 -61 34q-1 2 -7 18v23v0zM512 40h286q19 0 33 -12t16 -30t-8.5 -33t-29.5 -19q-4 -1 -11 -1h-573q-16 0 -29 9t-17 23q-6 15 -1 30t18 24q15 9 31 9h285v0z" />
    <glyph glyph-name="uniE605" unicode="&#xe605;" 
d="M940 327q27 13 25.5 48t-25.5 59l-359 359q-22 22 -53.5 22t-53.5 -22l-359 -359q-24 -24 -25.5 -58t25.5 -49q89 -44 250 -58t321 2.5t254 55.5zM867 340h-680v-12v-252q0 -37 20.5 -63.5t50.5 -26.5h326v1v106q0 44 20 75.5t48.5 31.5t48.5 -31.5t20 -75.5v-106v-1h76
q29 0 50 26.5t21 63.5v252q0 6 -1 12z" />
    <glyph glyph-name="uniE606" unicode="&#xe606;" 
d="M563 896h-102l-461 -486q0 -5 0.5 -11.5t3.5 -24.5t7.5 -31.5t15 -24.5t24.5 -11h77v-333q0 -78 76 -98l26 -4h205v358q0 12 6.5 18.5t12.5 6.5l7 1h102q3 0 7.5 -1t11.5 -7.5t7 -17.5v-358h205q29 0 50.5 10.5t31 25.5t14.5 30t6 26v10v359h77q22 0 34.5 19t14.5 38
l2 20z" />
    <glyph glyph-name="uniE607" unicode="&#xe607;" 
d="M806 -77h-5h-598q-48 0 -75 31q-29 33 -24 85v359h64v-364v-1q-3 -24 8 -37q8 -9 27 -9h601q22 -1 35 12q13 12 13 39v361h64v-361q0 -56 -33 -87q-31 -28 -77 -28zM136 368h-98q-22 0 -30 21t9 35l472 419q9 8 21 8t21 -7l479 -416q16 -15 9 -35.5t-29 -20.5l-105 -3h-1
q-13 0 -22.5 9t-9.5 22t9 22.5t22 10.5h23l-396 344l-388 -345h14q14 0 23 -9t9 -22.5t-9 -23t-23 -9.5zM403 -45q-11 0 -19 8t-8 19v226q0 23 20 44q34 35 115 35q79 0 114 -36q20 -21 20 -46v-222q0 -12 -8 -19.5t-19 -7.5t-19 7.5t-8 19.5v222q-1 5 -8 11q-20 17 -72 17
q-58 0 -76 -19q-4 -4 -5 -7v-225q0 -11 -8 -19t-19 -8zM410 170l-9 -206l-238 13l-17 254l5 166l-71 23l429 389l423 -369l-43 -41l-18 -370l-17 -57l-224 -8l-4 149l-14 100l-28 23l-55 9l-68 -6l-42 -6z" />
    <glyph glyph-name="uniE608" unicode="&#xe608;" 
d="M412 895q-18 -24 -31 -43q-11 -17 -22 -32t-13 -18q-10 -18 -2 -28q4 -4 9 -9.5t12 -10.5q6 -5 9 -13t0 -15t-7 -15.5t-8 -15.5q-9 -17 5 -36q7 -11 25 -39l36 -56q8 -15 23 -37.5t29 -42.5q17 -25 35 -51l30 44q12 18 25 37t21 31q7 12 18 31l25 35q11 18 20 32.5
t12 19.5q12 19 4 32q-3 6 -6 11.5t-7 13.5q-7 16 -2 25l12 11q7 8 15 19t2.5 20t-15.5 23q-5 6 -13.5 19t-17.5 26q-11 16 -23 32q5 0 9 -1q8 -2 19 -3q4 -2 12.5 -7t18 -11.5t19 -12.5t17.5 -9q15 -6 28.5 -9t34 -8.5t36 -19.5t21.5 -45q3 -15 9 -40.5t15 -56.5t18 -64.5
t18.5 -66.5t25 -72t31.5 -74.5t29.5 -62t17.5 -33.5q8 -15 11.5 -26.5t-2.5 -18.5q-5 -8 -19 -16t-25 -13t-26 -3.5t-25 18.5q-5 8 -16 27.5t-24 45t-28 54.5t-27 56q-14 27 -24.5 62t-18.5 64q-11 35 -18 71l-6 -56q-2 -26 -4.5 -56.5t-4.5 -60.5q-2 -31 0.5 -76t7 -89
t9.5 -79.5t8 -48.5q5 -23 5 -37t-26 -24q-12 -5 -30 -9.5t-38 -7.5t-39 -6t-32 -4q-28 -2 -35 8.5t-9 21.5q-2 6 -5 26t-7 44.5t-8 48t-6 36t-5 29.5t-5 33q-3 18 -6 39l-6 -34q-3 -14 -6 -31.5t-5 -34.5t-6 -40l-8 -46q-4 -23 -7 -42.5t-5 -28.5t-3.5 -15t-5.5 -9.5
t-12 -4.5t-22 0t-33 4t-39 7t-38.5 8.5t-30.5 8.5t-18 10.5t-7.5 15t0.5 17.5t5.5 18.5t8 43t9 75.5t7 85t1.5 72q-2 28 -4.5 62t-4.5 63q-3 34 -6 70q-9 -36 -20 -70q-8 -29 -17.5 -62.5t-18 -59t-24.5 -58t-32.5 -63t-29.5 -53t-16 -27.5q-6 -9 -19.5 -12.5t-25.5 1.5
q-13 5 -23.5 11.5t-20.5 15t-8.5 19t8.5 24.5q4 8 18.5 39t31.5 68t31 71t19 46q5 13 13 43t17 65t17.5 67t12.5 48q8 33 14.5 51t20.5 30t39 17t49.5 13t37 19.5t26.5 18.5q19 8 27 8q4 0 8 -1zM416 862q6 -31 13 -62q5 -27 12.5 -56.5t13.5 -54t15 -58.5t18 -64
q12 -36 23 -73q13 46 25 87q10 35 19 69t13 50q4 14 10 41l12 54q6 30 14 64q9 -12 17 -23l15 -21q7 -10 11 -15q8 -11 5.5 -15.5t-7.5 -9.5l-16 -16q-4 -5 -8 -11.5t0 -15.5l8 -13q2 -5 7 -17q6 -14 4 -21.5t-6 -14.5q-3 -4 -8.5 -13t-12 -19t-13.5 -21t-12 -19t-18 -28
l-26 -40q-16 -25 -33 -51q-15 23 -28 45q-11 17 -22 35.5t-17.5 27.5t-13.5 21t-14.5 23.5t-14.5 22.5t-11 17q-10 17 -6 30q2 5 6.5 14.5t10 20t1.5 17.5t-7 10q-3 4 -6 7t-10 11q-7 7 -6.5 12t5.5 15q2 3 7.5 12t12.5 20q9 11 18 26z" />
    <glyph glyph-name="uniE609" unicode="&#xe609;" 
d="M704 442q10 3 26 6t25 6q7 4 22 7.5t23 5.5q13 7 38 7l-12 -45q-3 -5 -5 -10.5t-3.5 -9t-4.5 -6.5q-2 -3 -5 -10.5t-5.5 -12t-6.5 -11t-9 -11.5q-6 -6 -15.5 -19t-16.5 -19l-32 -32l-128 -32l103 -13q-7 -3 -22 -14.5t-23 -17.5q-7 -3 -23 -12.5t-22 -12.5
q-10 -4 -29 -13.5t-29 -12.5q-38 -13 -64 -13q-44 0 -70 7q-26 0 -77 12q3 3 11 14t15 18q2 5 12 16.5t13 22.5q7 6 16.5 22t15.5 23l96 134q75 105 84 115q12 19 41 57.5t42 57.5l-103 -102q-25 -26 -102 -115q-15 -22 -52.5 -70.5t-49.5 -64.5q-4 -6 -13.5 -19t-12.5 -19
q-6 -6 -16 -22t-16 -23q-22 -22 -32 -51q-24 -16 -38 -45q-16 -19 -45 -57.5t-45 -57.5q0 6 3 20t3 25q13 38 26 57q26 52 38 84q7 9 15 25t11 19q2 5 5.5 11t5.5 9t2 6q3 3 4.5 6t1.5 5v2q-9 9 0 19q0 3 2 8t5.5 14t5.5 16q3 10 14.5 32.5t17.5 38.5q4 11 12 24.5
t14.5 23.5t18.5 27t19 27q38 54 90 115q14 17 31.5 35t39 37.5t31.5 30.5q38 38 115 89q50 34 122 64q6 2 21 6.5t22 6.5t19 5t19.5 4.5t16.5 2.5t17 1q0 -45 -6 -77q-13 -64 -20 -102q-3 -19 -12.5 -57.5t-12.5 -57.5q-5 -15 -15 -50t-17 -53zM160 -25.5q0 -13.5 9.5 -23
t22.5 -9.5t22.5 9.5t9.5 23t-9.5 22.5t-22.5 9t-22.5 -9t-9.5 -22.5zM307 -25.5q0 -13.5 9.5 -23t22.5 -9.5t22.5 9.5t9.5 23t-9.5 22.5t-22.5 9t-22.5 -9t-9.5 -22.5zM448 -25.5q0 -13.5 9.5 -23t22.5 -9.5t22.5 9.5t9.5 23t-9.5 22.5t-22.5 9t-22.5 -9t-9.5 -22.5z
M589 -25.5q0 -13.5 9.5 -23t22.5 -9.5t22.5 9.5t9.5 23t-9.5 22.5t-22.5 9t-22.5 -9t-9.5 -22.5zM717 -25.5q0 -13.5 9.5 -23t22.5 -9.5t22.5 9.5t9.5 23t-9.5 22.5t-22.5 9t-22.5 -9t-9.5 -22.5z" />
    <glyph glyph-name="uniE60A" unicode="&#xe60a;" 
d="M958 136q0 51 -12 90.5t-32 63.5t-43.5 43.5t-47.5 37t-43.5 37t-32 50t-12.5 69.5q0 24 -4 42q-11 74 -56.5 129t-109.5 73q1 5 1 11q0 21 -16.5 36.5t-39.5 15.5t-39 -15.5t-16 -36.5q0 -6 1 -11q-73 -21 -120 -87t-49 -152v-5q0 -35 -9.5 -62.5t-25.5 -45.5t-36 -35.5
t-41 -31t-41 -33.5t-35.5 -43t-25 -59t-9.5 -81q0 -49 98.5 -87t249.5 -49q14 -27 40.5 -43t58 -16t58 16t40.5 43q151 11 249.5 49t98.5 87v1zM785 90q-72 -19 -163 -27q-4 43 -36 72.5t-75.5 29.5t-75.5 -29.5t-36 -72.5q-92 8 -163 27q-79 21 -107 47q28 26 107 48
q118 31 274 31q157 0 275 -31q78 -22 107 -48q-29 -26 -107 -47z" />
    <glyph glyph-name="uniE60B" unicode="&#xe60b;" 
d="M342 386q19 -6 38 -11q115 -28 235 16v136q38 63 46 123v100h-46v-89q-5 0 -14.5 -1t-33 -7t-41.5 -14.5t-32.5 -26.5t-14.5 -41q0 23 -14 41t-34 26.5t-40.5 14t-34.5 7.5l-14 1v89h-45v-100q3 -27 14.5 -57.5t21.5 -48.5l9 -17v-141zM526 338q-28 -4 -57 -4
q-50 0 -98 12q-23 5 -44 14l-258 -415q73 -80 338 -89l72 -1h34q22 0 81 4.5t109.5 12.5t104 27t80.5 46l-260 419q-51 -19 -102 -26zM951 417q-34 22 -71.5 64.5t-66.5 87t-53.5 86.5t-37.5 69l-14 26q0 -255 58 -387l7 -15q17 -3 30 -0.5t22.5 8.5t16 12t9.5 11l3 4
q38 -28 79 -2q25 16 23 30q-1 4 -5 6z" />
    <glyph glyph-name="uniE60C" unicode="&#xe60c;" 
d="M515.5 696q-69.5 0 -133.5 -19t-110.5 -49t-86.5 -66.5t-66.5 -73t-45 -66.5t-27.5 -48l-8 -19q3 -8 9 -20t26.5 -47.5t45 -67.5t66 -71.5t87.5 -68t110 -47.5t134 -19q95 0 179.5 35t136.5 85t90.5 100t54.5 85l16 36q-3 7 -8.5 19t-26.5 47.5t-45.5 67.5t-66 71.5
t-87 68t-110 48t-134 19.5zM516 150q-85 0 -145 60t-60 144.5t60 144.5t145 60t144.5 -60t59.5 -144.5t-59.5 -144.5t-144.5 -60zM618 354.5q0 -42.5 -30 -72.5t-72.5 -30t-72 30t-29.5 72.5t29.5 72.5t72 30t72.5 -30t30 -72.5z" />
    <glyph glyph-name="uniE60D" unicode="&#xe60d;" 
d="M934 704h-165v61q0 15 -10.5 25.5t-25 10.5t-24.5 -10.5t-10 -25.5v-61h-152v61q0 15 -10 25.5t-25 10.5t-25 -10.5t-10 -25.5v-61h-152v61q0 15 -10 25.5t-25 10.5t-25 -10.5t-10 -25.5v-61h-166q-24 0 -41 -16t-17 -38v-658q0 -22 17 -38t41 -16h845q24 0 40.5 16
t16.5 38v658q0 22 -16.5 38t-40.5 16zM928 1h-833v639h160v-60q0 -15 10.5 -25t25 -10t24.5 10t10 25v60h152v-60q0 -15 10 -25t25 -10t25 10t10 25v60h152v-60q0 -15 10 -25t25 -10t25 10t10 25v60h159v-639zM391 242q-1 4 -2 11q20 22 26 48q8 4 12 16q8 21 -3 36
q5 50 -16 74q-19 22 -57 22t-57 -22q-22 -24 -17 -74q-11 -15 -3 -36q4 -12 13 -16q6 -26 25 -48q0 -7 -2 -11q-27 -5 -73 -39t-46 -66v-9h320v9q0 32 -46 66t-74 39zM596 441q-11 0 -18.5 -7.5t-7.5 -18t7.5 -18.5t18.5 -8h209q11 0 18.5 8t7.5 18.5t-7.5 18t-18.5 7.5
h-209zM596 262h157q11 0 18.5 7.5t7.5 18.5t-7.5 18.5t-18.5 7.5h-157q-11 0 -18.5 -7.5t-7.5 -18.5t7.5 -18.5t18.5 -7.5zM805 186h-209q-11 0 -18.5 -8t-7.5 -18.5t7.5 -18t18.5 -7.5h209q11 0 18.5 7.5t7.5 18t-7.5 18.5t-18.5 8z" />
    <glyph glyph-name="uniE60E" unicode="&#xe60e;" 
d="M506 866q-98 0 -187.5 -38t-154 -102.5t-102.5 -154t-38 -187.5t38 -187.5t102.5 -154t154 -102.5t187.5 -38t187.5 38t154 102.5t102.5 154t38 187.5t-38 187.5t-102.5 154t-154 102.5t-187.5 38zM823 480q12 -34 17 -70l2 -14l-79 -3l-2 11q-4 25 -12 49l-4 11l73 28z
M554 359q0 -17 -12 -29t-28.5 -12t-28.5 12t-12 29q0 12 8 23q-46 60 -77 129q19 11 21 12q46 -63 77 -126q6 2 12 2q9 0 17 -4q32 38 70 67q3 -3 9.5 -9t9.5 -9q-28 -43 -67 -77q1 -4 1 -8zM529 204v-67h-23v67h23zM617 508l47 47l17 -16l-48 -47zM644 267l47 -47l-16 -17
l-47 48zM680 370v23h67v-23h-67zM773 571q20 -27 35 -57l6 -12l-74 -28l-5 10q-10 20 -24 38l-7 10l62 49zM699 642q24 -17 45 -38l2 -2l3 -3l9 -10l-62 -49l-8 8q-17 17 -37 31l-11 8l49 61zM826 262q-24 -77 -82 -135q-48 -47 -109.5 -72.5t-128.5 -25.5t-129 25.5
t-109.5 73t-73 109t-25.5 129t25.5 129t73.5 109.5q79 78 188 95v70l190 -110l-190 -109v69q-77 -15 -133 -71q-75 -75 -75 -182t75.5 -182.5t182.5 -75.5t182 75q44 44 63 102l4 12l75 -23zM339 378v-23h-66v23h66zM329 528l16 17l47 -48l-16 -16zM387 256l16 -16l-47 -47
l-17 16zM836 298l-3 -13l-75 22l2 11q4 24 4 48v4v12l78 3l1 -12v-7q0 -35 -7 -68z" />
    <glyph glyph-name="uniE60F" unicode="&#xe60f;" 
d="M107 562h764v-142h53v248q0 27 -22 49.5t-49 22.5h-53v-36q0 -25 -21 -39t-50 -14t-50 14t-21 39v36h-338v-36q0 -24 -21.5 -38.5t-50 -14.5t-49.5 14.5t-21 38.5v36h-54q-27 0 -49 -22t-22 -50v-604q0 -27 22.5 -49t48.5 -22h374v53h-391v516zM729 686q17 0 26 11t9 25
v106q0 15 -8.5 25.5t-26.5 10.5t-27 -10.5t-9 -25.5v-106q0 -14 9.5 -25t26.5 -11zM249 686q17 0 26 11t9 25v106q0 15 -8.5 25.5t-26.5 10.5t-27 -10.5t-9 -25.5v-106q0 -14 9.5 -25t26.5 -11zM782 366q-96 0 -163.5 -67.5t-67.5 -163.5t67.5 -163.5t163.5 -67.5
t163.5 67.5t67.5 163.5t-67.5 163.5t-163.5 67.5zM782 -43q-77 0 -127.5 50.5t-50.5 127.5t50.5 127.5t128 50.5t127.5 -50.5t50 -127.5t-50 -127.5t-128 -50.5zM887 197q-9 0 -16 -7l-117 -99l-50 49q-7 8 -16 8t-15 -6t-6 -16q0 -9 7 -16l66 -66q7 -7 15.5 -7t16.5 7
l133 116q7 7 7 16q-3 8 -10 14.5t-15 6.5zM404 327q-8 -8 -22 -16q-3 -3 -10.5 -7t-10.5 -7q-6 -4 -18.5 -13t-18.5 -14q-17 -11 -31 -28q-14 -18 -21 -36q-7 -16 -7 -46h222v53h-144q11 16 27 27q5 4 15 11t15 10q21 15 30 22q18 11 27 23q11 10 19 28q8 14 8 39
q0 22 -9 39q-8 18 -23 31q-12 11 -34 17q-25 8 -39 8q-25 0 -48 -9q-19 -7 -36 -27q-12 -15 -21 -39q-8 -21 -6 -48h59q0 16 2 25q3 15 9 23q5 10 14 16q11 7 23 7q22 0 32 -12q13 -13 13 -34q0 -16 -8 -25q4 -5 -8 -18v0zM578 347l12 69h125v52h-169l-30 -168h55z" />
    <glyph glyph-name="uniE610" unicode="&#xe610;" 
d="M893 660h-215v-56h171l70 -304h-227l-83 -111h-194l-83 111h-227l70 304h171v56h-215l-90 -388l90 -359h762l90 359zM850 -32h-676l-69 277h200l83 -111h248l83 111h200zM374 377h276v305h119l-257 172l-257 -172h119v-305z" />
    <glyph glyph-name="uniE611" unicode="&#xe611;" 
d="M893 660h-215v-56h171l70 -304h-227l-83 -111h-194l-83 111h-227l70 304h171v56h-215l-90 -388l90 -359h762l90 359zM850 -32h-676l-69 277h200l83 -111h248l83 111h200zM650 854h-276v-305h-119l257 -172l257 172h-119v305z" />
    <glyph glyph-name="uniE612" unicode="&#xe612;" 
d="M231 825v-7v-66q1 -25 25 -38q35 -18 67 5q18 14 18 36v64v6h342v-3v-2v-61q-1 -17 8.5 -30t25.5 -19q30 -11 56 7q21 15 21 40v19v24v19v6h5h82q54 -1 86 -38q23 -25 23 -61v-365v-385q0 -38 -23 -64t-56 -34q-15 -3 -33 -3h-732q-44 0 -75 24q-36 29 -36 74v321v428
q-1 40 22.5 66t58.5 34q12 3 26 3h85h4zM919 558h-814v-7v-562v-4q0 -12 8 -20q12 -11 34 -11h727h15q13 2 21.5 11t8.5 23v564v6zM313 809v-58q0 -28 -28 -26q-22 1 -24 18q-1 2 -1 6v118q0 13 7.5 20t19.5 6q8 -1 17 -5q9 -5 9 -17v-62zM711 809v58q0 13 8.5 20.5
t22.5 5.5q19 -4 22 -19v-6v-119q1 -21 -21 -24q-11 -2 -20 3q-12 6 -12 19v31v31zM471 173q39 45 43 50q56 64 191 219q14 17 32 13q21 -4 27 -26q8 -25 -9 -45q-247 -284 -258 -297t-26 -13t-27 13q-22 27 -67.5 79t-68.5 79q-16 18 -18 29q-3 19 6 33.5t25 16.5
q17 2 30 -13q76 -87 114 -131q2 -3 6 -7z" />
    <glyph glyph-name="uniE613" unicode="&#xe613;" horiz-adv-x="1184" 
d="M256 887q43 0 75 -28t38 -69h-225q6 41 38 69t74 28zM690 687q75 0 142 -28.5t118.5 -79t80 -117.5t28.5 -142t-28.5 -142t-80 -118t-118.5 -79t-142.5 -28t-142.5 28t-118.5 79t-80 118t-28.5 141.5t28.5 142t80 118t118.5 79t143 28.5zM642 499q-35 20 -78.5 2
t-70 -63.5t-20 -92t41.5 -66.5q12 -7 23 -6.5t19 4.5t18.5 17.5t16.5 23.5l18 30l10 18l11 18q15 25 21 37.5t11.5 29.5t0 28t-21.5 20zM868 497q-74 74 -178.5 74t-178.5 -73.5t-74 -177.5t74 -177.5t178.5 -73.5t178.5 73.5t74 177.5t-74 177zM498 895l-82 -154h-276
q-57 0 -98 -40.5t-41 -97.5v-590q0 -57 41 -98t98 -41h903q57 0 98 41t41 98v590q0 57 -41 97.5t-98 40.5h-44l-94 154h-407z" />
    <glyph glyph-name="uniE614" unicode="&#xe614;" 
d="M990 531l-451 317q-5 5 -11 8q-10 6 -22 3t-20 -14l-448 -315q-10 -8 -11.5 -21.5t7 -25.5t22 -15t22.5 4l31 22v-520q0 -14 10.5 -24.5t24.5 -10.5t24.5 10.5t10.5 24.5v570l336 235l339 -238v-565q0 -14 10.5 -24.5t25 -10.5t25 10.5t10.5 24.5v514l24 -16
q11 -8 23.5 -4.5t21 15.5t7.5 25.5t-11 20.5v0zM352 51h-58q-16 0 -21.5 -5t-5.5 -22v-59q0 -17 5.5 -22t21.5 -5h58q17 0 22 5t5 22v59q-1 17 -6 22t-21 5v0zM352 245h-58q-16 0 -21.5 -5.5t-5.5 -21.5v-58q0 -17 5.5 -22t21.5 -5h58q17 0 22 5t5 22v59q-1 16 -6 21t-21 5
v0zM544 51h-58q-16 0 -21.5 -5t-5.5 -22v-59q0 -17 5.5 -22t21.5 -5h58q17 0 22 5t5 22v59q-1 17 -6 22t-21 5v0zM736 51h-58q-16 0 -21.5 -5t-5.5 -22v-59q0 -17 5.5 -22t21.5 -5h58q17 0 22 5t5 22v59q-1 17 -6 22t-21 5v0zM544 245h-58q-16 0 -21.5 -5.5t-5.5 -21.5v-58
q0 -17 5.5 -22t21.5 -5h58q17 0 22 5t5 22v59q-1 16 -6 21t-21 5v0zM352 438h-58q-16 0 -21.5 -5t-5.5 -22v-59q0 -17 5.5 -22t21.5 -5h58q17 0 22 5t5 22v59q-1 18 -6 22.5t-21 4.5v0zM534 314z" />
    <glyph glyph-name="uniE615" unicode="&#xe615;" 
d="M682.5 628q24.5 0 43 18.5t18.5 42.5v61q0 24 -18.5 42.5t-43 18.5t-42.5 -18.5t-18 -42.5v-61q0 -24 18 -42.5t42.5 -18.5zM769 725l-1 -32q0 -43 -21 -69.5t-64.5 -26.5t-64.5 26.5t-21 69.5v32h-170v-32q0 -42 -21.5 -69t-64.5 -27t-64 26.5t-21 69.5v32h-128v-31
v-737h30h708h30v737v31h-127zM853 0h-682v555h682v-555zM341.5 628q24.5 0 42.5 18.5t18 42.5v61q0 24 -18 42.5t-42.5 18.5t-43 -18.5t-18.5 -42.5v-61q0 -24 18.5 -42.5t43 -18.5zM284 388q2 -2 5 -2t5 2l16 16l74 77q2 2 2 5t-2 5l-14 13q-2 2 -6 2q-2 0 -4 -2l-41 -46
q-28 -30 -32 -30q-2 0 -10 7l-17 15q-2 3 -5.5 2.5t-5.5 -2.5l-10 -11q-3 -2 -2.5 -5t2.5 -5zM497 388q3 -2 6 -2t5 2l16 16l74 77q2 2 2 5t-3 5l-13 13q-2 2 -6 2q-2 0 -4 -2l-41 -46q-28 -30 -32 -30q-2 0 -11 7l-16 15q-3 3 -6 2.5t-5 -2.5l-11 -11q-2 -2 -1.5 -5t2.5 -5
zM704 388q2 -2 5 -2t5 2l16 16l74 77q2 2 2 5t-2 5l-13 13q-3 2 -7 2q-2 0 -4 -2l-41 -46q-28 -30 -32 -30q-2 0 -10 7l-17 15q-2 3 -5.5 2.5t-5.5 -2.5l-10 -11q-2 -2 -2 -5t2 -5zM281 235q3 -2 6 -2t5 3l16 16l74 77q2 2 2 5t-3 5l-13 13q-2 2 -6 2q-2 0 -4 -3l-41 -46
q-28 -30 -32 -30q-2 0 -11 8l-16 15q-3 2 -6 2t-5 -2l-11 -11q-2 -2 -2 -5t3 -6zM281 82q3 -2 6 -2t5 3l16 16l74 77q2 2 2 5t-3 5l-13 13q-2 2 -6 2q-2 0 -4 -3l-41 -46q-28 -30 -32 -30q-2 0 -11 8l-16 15q-3 2 -6 2t-5 -2l-11 -11q-2 -2 -2 -5t3 -6zM495 235q3 -2 6 -2
t5 3l16 16l74 77q2 2 2 5t-3 5l-13 13q-2 2 -6 2q-2 0 -5 -3l-40 -46q-28 -30 -33 -30q-2 0 -10 8l-16 15q-3 2 -6 2t-5 -2l-11 -11q-2 -2 -2 -5t3 -6zM702 235q2 -2 5 -2t5 3l16 16l74 77q2 2 2 5t-2 5l-14 13q-2 2 -6 2q-2 0 -4 -3l-41 -46q-28 -30 -32 -30q-2 0 -11 8
l-16 15q-2 2 -5.5 2t-5.5 -2l-10 -11q-3 -2 -2.5 -5t2.5 -6zM713 171h-30v-86h30h24h31v86h-31h-24zM469 171v-31v-55h31h24h31v55v31h-86z" />
    <glyph glyph-name="uniE616" unicode="&#xe616;" 
d="M193 654q0 -54 22 -102t62 -82q33 -34 39 -45q3 -5 3 -26v-21q0 -16 -17 -36q-18 -22 -51 -41q-70 -41 -132 -41q-38 0 -65.5 -27.5t-27.5 -66.5v-64q0 -19 12 -33t30 -17v-128q0 -22 15 -37t36 -15h786q21 0 36 15t15 37v128q18 3 30 17t12 33v64q0 39 -27.5 66.5
t-65.5 27.5q-62 0 -132 41q-33 19 -51 41q-17 19 -17 36v27q0 16 3 20q6 11 39 45q40 34 62 82.5t22 101.5q0 100 -70 171q-37 37 -88 54t-150 17q-115 0 -168.5 -16.5t-91.5 -54.5q-70 -71 -70 -171zM853 -25h-682v76h682v-76zM480 793q74 0 124 -10.5t76 -30.5t37 -43.5
t11 -54.5q0 -66 -50 -107v-1q-1 0 -3 -2q-45 -46 -58 -70q-9 -16 -12 -34q-3 -13 -3 -35v-9v-8v-4v-4v-1v-1q0 -46 30 -88.5t86 -75.5q43 -26 93 -42q45 -13 84 -15v-3h-766v3q39 2 84 15q50 16 93 42q56 33 86 75.5t30 88.5v21q0 22 -2 35q-3 20 -12 38q-13 25 -59 72
q-2 1 -3 3q-50 41 -50 107q0 61 46 100t138 39z" />
    <glyph glyph-name="uniE617" unicode="&#xe617;" 
d="M811 126q-9 -1 -19.5 -3.5t-18.5 -5.5q-10 -4 -19 -9q-2 11 1 22q2 10 8 21.5t20 22.5q26 17 61.5 21.5t66 -8t48 -42.5t6.5 -83q-10 -42 -38.5 -76t-76 -52.5t-112 -17.5t-144.5 29q-55 19 -87 48.5t-48 60t-19 57.5t-1 42.5t13 38t22 42.5q13 25 30 51q8 13 14 25
q5 12 8 23t0 21q-10 27 -25.5 41.5t-29.5 21.5q-17 7 -36 8q-25 1 -47 6q-18 5 -36 13.5t-26 25.5q-10 17 -8.5 35.5t7.5 36.5t12 34.5t6 28.5q0 33 -35 46q-45 12 -67.5 9.5t-31.5 -9t-9 -12t0 -1.5q0 -14 3.5 -36.5t-3.5 -43.5q-5 -12 -14 -23t-15 -20q-8 -13 -13.5 -23
t-4.5 -13q2 -4 9.5 -5.5t11.5 -3.5q5 -3 6.5 -9.5t7.5 -11.5q11 -11 13 -18q1 -4 0 -7q0 -8 1 -20q1 -9 2.5 -20.5t4.5 -23.5q6 -26 14 -37t20 -13.5t28.5 -0.5t39.5 2q18 -1 36.5 -1t32.5 -8t22.5 -22.5t13.5 -28.5q4 -18 6 -36q3 -24 3 -47q0 -21 -2 -45t-10 -47
q-18 -48 -51.5 -71.5t-72.5 -31.5q-41 -8 -78 -2t-66.5 20.5t-48.5 35t-23 41.5q-3 16 -0.5 32t7.5 30.5t12 28t12 25.5q10 20 12 34.5t0 25.5t-8 20q-10 10 -20 22q-8 10 -17.5 21.5t-15.5 26.5q-20 42 -21 78q0 15 0.5 37t7.5 41q6 17 30 44t54 70q6 12 10.5 25.5t7 25
t3.5 19.5t1 11q0 10 -1 22.5t-2 25.5q0 6 -1 20.5t3 32t13 35.5t28 32q16 11 37 15.5t39 5.5q22 2 45 -1q20 8 41 12q19 4 43.5 7t50.5 3q90 -2 150 -27t99 -61.5t59.5 -79t30 -79t11 -61.5t1.5 -26q1 -17 12 -31.5t26 -29.5t31 -30t27 -34q21 -39 23 -69.5t-8 -54
t-28.5 -40.5t-37.5 -28.5t-34.5 -17.5t-20.5 -8q-33 -15 -51 -33.5t-24.5 -37t-2.5 -36t15 -29.5q7 -9 18.5 -15.5t23 -9.5t22.5 -3.5t18 1.5q16 3 27 15t13 25.5t-6 22.5t-27 8z" />
    <glyph glyph-name="uniE618" unicode="&#xe618;" 
d="M343 748q54 0 103.5 -18t64.5 -35q20 15 71 32.5t104 17.5q98 0 154 -68q42 -51 54.5 -114t-1 -121t-37.5 -106.5t-55 -84.5q-32 -37 -90 -76t-116.5 -75t-83.5 -60q-25 24 -83.5 60t-116.5 75t-90 76q-31 36 -55 84.5t-37.5 106.5t-1 121t54.5 114q59 71 161 71z
M343 808q-131 0 -208 -93q-40 -49 -58 -107.5t-15.5 -112.5t19.5 -108.5t41 -97.5t54 -78q22 -26 57.5 -54t60 -43.5t68.5 -42.5q84 -52 107 -74l42 -41l42 41q22 22 107 74q44 27 68.5 42.5t60 43.5t57.5 54q30 35 54 78t41 97.5t19.5 108.5t-15.5 112.5t-58 107.5
q-75 90 -201 90q-86 0 -171 -40q-78 43 -172 43v0zM788 632q-25 30 -60.5 44.5t-68.5 13.5t-65 -9t-53 -17.5t-30 -16.5q-10 12 -41.5 24.5t-72 19t-86.5 -7.5t-77 -51q-35 -43 -45.5 -96t1 -101.5t31.5 -89.5t46 -72q13 -15 33 -31q-1 30 1 58q4 56 32.5 97.5t71.5 41.5
q-29 0 -49 20.5t-20 49t20 49t49 20.5t49.5 -20.5t20.5 -49t-20.5 -49t-49.5 -20.5q42 0 73 -42.5t31 -96.5q0 54 31 96.5t73 42.5q-28 0 -48.5 20.5t-20.5 49t20.5 49t49 20.5t49 -20.5t20.5 -49t-20.5 -49t-49.5 -20.5q44 0 74.5 -42.5t30.5 -96.5q2 -24 4 -58
q19 16 32 31q27 31 47 72t31.5 89.5t1 101.5t-45.5 96z" />
    <glyph glyph-name="uniE619" unicode="&#xe619;" 
d="M413 329q5 -7 15.5 -16.5t34 -20t49.5 -10.5q36 0 62 14.5t37 29.5q-6 23 3 55q44 45 71.5 110.5t27.5 131.5q0 101 -57.5 158t-143.5 57t-143.5 -57t-57.5 -158q0 -68 27 -133t72 -109q10 -22 3 -52zM649 299q-4 -19 -11 -48.5t-28.5 -97t-42.5 -107.5q-17 68 -45 133
q4 2 10.5 5t17 13.5t10.5 22.5q0 14 -12 26t-24 17l-12 5q-2 0 -5.5 -1t-12.5 -5t-15.5 -9t-12 -13.5t-5.5 -19t9.5 -21t18.5 -15.5l9 -5q-27 -61 -44 -126q-20 39 -39.5 100.5t-29.5 103.5l-10 42q-60 -22 -112 -51t-89 -66t-37 -71v-27q0 -36 32 -61t88.5 -38t118.5 -18.5
t136 -5.5t135.5 5.5t117.5 18.5t87.5 38t31.5 61v27q2 35 -34 72.5t-87.5 65.5t-113.5 50z" />
    <glyph glyph-name="uniE61A" unicode="&#xe61a;" 
d="M298 249q0 -17 12 -28q11 -11 27 -11q17 0 28 11q12 12 12 28t-12 28q-12 11 -28 11t-27 -11q-12 -12 -12 -28zM298 249zM625 249q0 -17 12 -28q11 -11 27 -11q17 0 28 11q11 12 11 28t-11 28q-12 11 -28 11t-27 -11q-12 -12 -12 -28zM625 249zM907 367q0 8 -1 16
q0 2 1 9q0 12 -4 25q-7 53 -26.5 102t-53 93.5t-88 77.5t-123.5 47q4 13 4 25q0 39 -30.5 66.5t-74 27.5t-74 -27.5t-30.5 -66.5q0 -13 4 -25q-62 -13 -112.5 -42t-83.5 -66t-56 -82.5t-33 -90.5t-10 -90q-49 -36 -49 -96q0 -37 21 -67.5t55 -44.5q33 -211 53 -200q8 4 8 33
q0 6 -3.5 42.5t-4.5 66.5q25 -46 62 -83q50 -51 115.5 -78t137.5 -27t137 27t116 78q24 24 43 51q-3 -79 -3 -99q0 -21 12 -3q24 34 52 150q5 23 9 41q36 13 57.5 43.5t21.5 68.5q1 62 -49 98v0zM84 270q0 44 33 75q0 -4 1 -6q12 -97 22 -161q-26 13 -41 37.5t-15 54.5z
M808 102q-45 -79 -124 -126t-173 -47q-105 0 -190.5 58t-124.5 152q3 142 69 200q71 60 99 193q27 -118 106 -136q112 -27 210 -28h4q121 -1 131 -98q-1 0 -7 -168v0zM882 177q16 79 21 156q2 5 3 13q34 -31 34 -76q0 -30 -16 -55t-42 -38zM882 177z" />
    <glyph glyph-name="uniE61B" unicode="&#xe61b;" 
d="M312 209q0 -15 11 -26t26 -11t26 11t11 26t-11 25.5t-26 10.5t-26 -10q-11 -11 -11 -26zM312 209zM619 209q0 -15 10.5 -26t26 -11t26 11t10.5 26t-10.5 25.5t-26 10.5t-26 -10.5t-10.5 -25.5zM619 209zM947 464q-1 10 -4 27t-18.5 56t-37.5 63q1 1 3 2.5t6 6.5t5.5 10.5
t-2.5 14t-15 17.5q-4 1 -9.5 2.5t-16.5 3t-14 0.5q-2 6 -6 16.5t-17.5 30.5t-29.5 27q-1 -1 -7.5 0.5t-16 -4t-12.5 -18.5q-79 40 -136 50q-5 1 -15 3.5t-37.5 11t-50 18.5t-46.5 26.5t-35 35.5q-1 2 -3 4.5t-11 5.5t-21 -3q-3 -2 -7.5 -8t-9.5 -32.5t-2 -63.5l-4 -2
q-20 2 -105 57q-28 7 -36 -15q-15 -51 3 -88q-64 -12 -92 -40q-1 -1 -3 -4t-4.5 -10t-1.5 -13t8.5 -12t21.5 -7q-3 -2 -8.5 -6t-19.5 -18.5t-26 -32t-23 -48.5t-15 -66q-1 -89 27 -188q-10 -25 -7 -51q5 -39 32 -66.5t65 -32.5q25 -76 82 -133q98 -98 237 -98t238 98
q58 59 82 136q38 5 64.5 30.5t32.5 63.5q6 35 -10 68q34 101 28 175zM186 141q-30 7 -50.5 30t-23.5 54q-2 11 0 22q11 -34 26 -62q2 -3 6 -5.5t16 -8t21 -0.5q1 -5 3 -16zM512 -91q-113 0 -200.5 71t-112.5 179l-2 24q4 5 7 11q0 4 0.5 11t4.5 27.5t10 39t18.5 41.5
t28.5 39q6 -1 16.5 -2.5t41.5 3.5t60 22q-27 -34 -53 -52q0 -2 -1 -4.5t-1.5 -8.5t0.5 -11t6 -9.5t14 -5.5q4 -1 11.5 -1.5t30 -0.5t45 4t53.5 15t59 30v-4q0 -2 1.5 -7.5t5.5 -8t12.5 -5.5t22.5 1q5 1 13 2t34 13.5t54 33.5q1 -3 5 -6t20 -2t39 13q-1 -44 39 -113
q17 -28 17 -78q5 -4 12 -8l-4 -25q-30 -100 -115 -164t-192 -64v0zM914 223q-5 -30 -26 -52t-51 -28l3 15q23 -2 35 27q18 34 36 82q6 -21 3 -44zM914 223z" />
  </font>
</defs>
</svg>
